<svg width="24" height="24" viewBox="0 0 24 24" fill="none" xmlns="http://www.w3.org/2000/svg">
<path fill-rule="evenodd" clip-rule="evenodd" d="M13.5 9.96531V3.04531C13.5 2.43531 14.04 1.95531 14.64 2.04531C18.52 2.59531 21.5 5.93531 21.5 9.96531H13.5ZM21.5 10.9653C21.5 12.8053 20.87 14.5053 19.82 15.8553C20.74 16.6753 21.23 17.9653 20.88 19.3553C20.56 20.6153 19.52 21.6153 18.25 21.8853C16.17 22.3253 14.3 20.9053 14.03 18.9653H11.95C11.68 20.9153 9.8 22.3353 7.7 21.8753C6.44 21.5953 5.4 20.5853 5.1 19.3253C4.7 17.6553 5.51 16.0953 6.84 15.3853C6.61 15.0353 4.72 10.9653 4.72 10.9653H3.5C2.95 10.9653 2.5 10.5153 2.5 9.96531C2.5 9.41531 2.95 8.96531 3.5 8.96531H5.36C5.74 8.96531 6.1 9.18531 6.26 9.53531L6.94 10.9653H21.5ZM8.5 19.9653C7.67 19.9653 7 19.2953 7 18.4653C7 17.6353 7.67 16.9653 8.5 16.9653C9.33 16.9653 10 17.6353 10 18.4653C10 19.2953 9.33 19.9653 8.5 19.9653ZM16 18.4653C16 19.2953 16.67 19.9653 17.5 19.9653C18.33 19.9653 19 19.2953 19 18.4653C19 17.6353 18.33 16.9653 17.5 16.9653C16.67 16.9653 16 17.6353 16 18.4653Z" fill="#DBDBDB"/>
</svg>
