<svg width="22" height="18" viewBox="0 0 22 18" fill="none" xmlns="http://www.w3.org/2000/svg">
<path fill-rule="evenodd" clip-rule="evenodd" d="M11.0002 2.26717C12.7602 0.207168 16.0202 -0.632832 18.6602 1.16717C20.0602 2.12717 20.9402 3.74717 21.0002 5.44717C21.1302 9.32717 17.7002 12.4372 12.4502 17.1972L12.3402 17.2972C11.5802 17.9972 10.4102 17.9972 9.65021 17.3072L9.55021 17.2172L9.48981 17.1623C4.27384 12.4233 0.860751 9.32227 1.00021 5.45717C1.06021 3.74717 1.94021 2.12717 3.34021 1.16717C5.98021 -0.642832 9.24021 0.207168 11.0002 2.26717ZM11.0002 15.8272L11.1002 15.7272C15.8602 11.4172 19.0002 8.56717 19.0002 5.67717C19.0002 3.67717 17.5002 2.17717 15.5002 2.17717C13.9602 2.17717 12.4602 3.16717 11.9402 4.53717H10.0702C9.54021 3.16717 8.04021 2.17717 6.50021 2.17717C4.50021 2.17717 3.00021 3.67717 3.00021 5.67717C3.00021 8.56717 6.14021 11.4172 10.9002 15.7272L11.0002 15.8272Z" fill="#828282"/>
</svg>
