<svg width="24" height="24" viewBox="0 0 24 24" fill="none" xmlns="http://www.w3.org/2000/svg">
<path d="M7.19053 14.1281C7.19053 10.6687 15.2975 8.38594 15.2975 4.6125C15.2975 2.40469 12.6749 0.4875 12.2815 0.375C12.3124 0.529687 12.3278 0.689062 12.3278 0.84375C12.3278 5.16094 0.981079 8.05781 0.981079 13.4344C0.981079 15.7687 3.46486 17.1469 6.11063 18.5109C11.1322 20.7 12.135 21.8578 12.135 22.5703C12.135 23.0437 11.7647 23.3672 11.7647 23.6156C12.7752 22.8328 13.1069 22.1203 13.1146 21.4406C13.1146 20.0531 11.4407 18.8016 9.70517 17.3859C8.47099 16.3406 7.19053 15.3891 7.19053 14.1281ZM23.0266 12.3C22.0932 9.16875 17.01 6.46875 15.7218 6.16406L16.0303 6.50156C16.2155 6.74062 16.2926 7.0125 16.2926 7.30312C16.2926 9.39844 12.1118 12.5156 11.9267 12.7734C11.757 13.0125 11.6799 13.2656 11.6799 13.5141C11.6799 14.4562 12.8523 15.4875 13.0606 15.4875C13.2457 15.4875 17.4265 12.8906 17.5422 11.3766C18.0359 11.925 18.2441 12.4359 18.2441 12.9422C18.2441 14.8734 15.0198 17.4844 15.0198 17.4844C15.0198 18.0281 17.4805 19.9781 17.7582 19.9781C17.8353 19.9781 17.9279 19.9125 18.005 19.8656C20.9285 18.0234 23.1963 15.8812 23.1963 13.4531C23.1963 13.0781 23.1423 12.6937 23.0266 12.3Z" fill="white"/>
</svg>
