<svg width="23" height="24" viewBox="0 0 23 24" fill="none" xmlns="http://www.w3.org/2000/svg">
<path d="M19.4719 7.49998H19.4194C19.5487 6.55479 19.4385 5.59734 19.096 4.69041C18.7536 3.78348 18.1867 2.94756 17.4324 2.23749C16.6782 1.52741 15.7536 0.959213 14.7194 0.570158C13.6852 0.181103 12.5647 -0.0200195 11.4315 -0.0200195C10.2982 -0.0200195 9.17771 0.181103 8.14352 0.570158C7.10933 0.959213 6.18478 1.52741 5.43052 2.23749C4.67626 2.94756 4.10933 3.78348 3.7669 4.69041C3.42447 5.59734 3.31428 6.55479 3.44356 7.49998H3.39107C2.68025 7.49998 1.99855 7.73703 1.49593 8.15899C0.993308 8.58095 0.710938 9.15324 0.710938 9.74998C0.710938 10.3467 0.993308 10.919 1.49593 11.341C1.99855 11.7629 2.68025 12 3.39107 12H19.4719C20.1827 12 20.8644 11.7629 21.367 11.341C21.8696 10.919 22.152 10.3467 22.152 9.74998C22.152 9.15324 21.8696 8.58095 21.367 8.15899C20.8644 7.73703 20.1827 7.49998 19.4719 7.49998ZM9.83344 23.1417C9.97431 23.398 10.1997 23.615 10.4829 23.7672C10.7661 23.9193 11.0953 24.0002 11.4315 24.0002C11.7677 24.0002 12.0969 23.9193 12.3801 23.7672C12.6633 23.615 12.8886 23.398 13.0295 23.1417L18.5785 13.5H4.28445L9.83344 23.1417Z" fill="white"/>
</svg>
