<svg width="24" height="20" viewBox="0 0 24 20" fill="none" xmlns="http://www.w3.org/2000/svg">
<path d="M11.8892 0C5.62417 0 0.518921 4.49 0.518921 10C0.518921 15.51 5.62417 20 11.8892 20C13.4583 20 14.7318 18.88 14.7318 17.5C14.7318 16.89 14.4702 16.3 14.0041 15.83C13.9131 15.73 13.8562 15.62 13.8562 15.5C13.8562 15.22 14.1064 15 14.4248 15H16.4373C20.2009 15 23.2595 12.31 23.2595 9C23.2595 4.04 18.1542 0 11.8892 0ZM18.1428 11C17.1991 11 16.4373 10.33 16.4373 9.5C16.4373 8.67 17.1991 8 18.1428 8C19.0866 8 19.8484 8.67 19.8484 9.5C19.8484 10.33 19.0866 11 18.1428 11ZM14.7318 7C13.788 7 13.0262 6.33 13.0262 5.5C13.0262 4.67 13.788 4 14.7318 4C15.6755 4 16.4373 4.67 16.4373 5.5C16.4373 6.33 15.6755 7 14.7318 7ZM3.93 9.5C3.93 8.67 4.69181 8 5.63554 8C6.57927 8 7.34108 8.67 7.34108 9.5C7.34108 10.33 6.57927 11 5.63554 11C4.69181 11 3.93 10.33 3.93 9.5ZM10.7522 5.5C10.7522 6.33 9.99035 7 9.04662 7C8.10289 7 7.34108 6.33 7.34108 5.5C7.34108 4.67 8.10289 4 9.04662 4C9.99035 4 10.7522 4.67 10.7522 5.5Z" fill="white"/>
</svg>
