<svg width="28" height="24" viewBox="0 0 28 24" fill="none" xmlns="http://www.w3.org/2000/svg">
<path d="M8.55938 0.00692348C7.70237 -0.0643265 6.90476 0.401611 6.68573 1.13755L5.90031 3.7752C15.8503 4.03255 22.5813 9.89755 23.0023 18.6346L26.022 17.8949C26.8557 17.6905 27.3738 16.9724 27.2747 16.2121C26.1673 7.73802 18.2066 0.811767 8.55938 0.00692348ZM5.45855 5.25692L0.163222 23.0455C0.124726 23.1747 0.125469 23.3107 0.165374 23.4396C0.20528 23.5684 0.282937 23.6858 0.390512 23.7797C0.498087 23.8735 0.631775 23.9407 0.77809 23.9744C0.924404 24.008 1.07817 24.0069 1.22388 23.9713L21.3233 19.0447C21.0969 10.8468 14.796 5.35067 5.45855 5.2588V5.25692ZM6.92226 19.4999C6.58661 19.4999 6.25851 19.4119 5.97943 19.2471C5.70035 19.0823 5.48283 18.848 5.35439 18.5739C5.22594 18.2998 5.19233 17.9982 5.25781 17.7073C5.3233 17.4163 5.48492 17.149 5.72226 16.9392C5.9596 16.7295 6.26198 16.5866 6.59118 16.5287C6.92037 16.4708 7.26159 16.5005 7.57169 16.6141C7.88179 16.7276 8.14683 16.9199 8.3333 17.1665C8.51978 17.4132 8.61931 17.7032 8.61931 17.9999C8.61931 18.3977 8.44051 18.7792 8.12225 19.0606C7.80399 19.3419 7.37234 19.4999 6.92226 19.4999ZM9.46783 12.3749C9.13219 12.3749 8.80408 12.2869 8.525 12.1221C8.24592 11.9573 8.02841 11.723 7.89996 11.4489C7.77152 11.1748 7.73791 10.8732 7.80339 10.5823C7.86887 10.2913 8.0305 10.024 8.26784 9.81423C8.50517 9.60445 8.80756 9.46159 9.13676 9.40372C9.46595 9.34584 9.80717 9.37554 10.1173 9.48907C10.4274 9.60261 10.6924 9.79486 10.8789 10.0415C11.0654 10.2882 11.1649 10.5782 11.1649 10.8749C11.1649 11.2727 10.9861 11.6542 10.6678 11.9356C10.3496 12.2169 9.91792 12.3749 9.46783 12.3749ZM14.9832 17.2499C14.6476 17.2499 14.3195 17.1619 14.0404 16.9971C13.7613 16.8323 13.5438 16.598 13.4154 16.3239C13.2869 16.0498 13.2533 15.7482 13.3188 15.4573C13.3843 15.1663 13.5459 14.899 13.7833 14.6892C14.0206 14.4795 14.323 14.3366 14.6522 14.2787C14.9814 14.2208 15.3226 14.2505 15.6327 14.3641C15.9428 14.4776 16.2078 14.6699 16.3943 14.9165C16.5808 15.1632 16.6803 15.4532 16.6803 15.7499C16.6803 16.1477 16.5015 16.5292 16.1832 16.8106C15.865 17.0919 15.4333 17.2499 14.9832 17.2499Z" fill="white"/>
</svg>
